# xmcd
#
# Track frame offsets: 
#        150
#        30425
#        48551
#        64464
#        95010
#        119493
#        138316
#        164086
#        180547
#        198702
#
# Disc length: 2926 seconds
#
# Revision: 0
# Processed by: cddbd v1.4PL0 Copyright (c) Steve Scherf et al.
# Submitted via: ExactAudioCopy v0.90b4
#
DISCID=980b6c0a
DTITLE=5 to Midnight - 5 to Midnight
DYEAR=1997
DGENRE=Contemporary Christian
TTITLE0=Creation Song
TTITLE1=Garbage Man Blues
TTITLE2=Who?
TTITLE3=Old North Wind
TTITLE4=Apathy
TTITLE5=Firelight
TTITLE6=The Question
TTITLE7=Adam and Steve
TTITLE8=Saviour
TTITLE9=Judgement
EXTD=
EXTT0=
EXTT1=
EXTT2=
EXTT3=
EXTT4=
EXTT5=
EXTT6=
EXTT7=
EXTT8=
EXTT9=
PLAYORDER=
